<svg xmlns="http://www.w3.org/2000/svg" xmlns:xlink="http://www.w3.org/1999/xlink" xmlns:lucid="lucid" width="759.09" height="482.87"><g transform="translate(-245.01729047396782 -220)" lucid:page-tab-id="0_0"><path d="M0 0h1360v1760H0z" fill="#fff"/><path d="M662.7 320.2c-.76-6.95-3.4-13.1-5.18-12.98-1.46.1-.43 4.85-.78 10.33-.9 14.3-10.6 22.9-18.54 24.3-12.33-7.85-9.2-35.26-.5-58.78 1.4-3.82 3.73-10.58 4.23-13.02 1.3-6.35-6.7-7.56-12.2-2.92-4 3.37-7.8 11.25-10.94 20.37-9.95 29.02-5.72 53.56 12.1 58.88 24.1 7.2 33.35-11.75 31.8-26.18z" fill="#5f6062"/><path d="M647.34 299.98c-4.9 1.6-8.95 14.82-6.73 23.72 2.26-1.78 4.26-5.73 7.7-6.92 3.4-1.16 10.4 1.08 12.15 2.92 1.6 1.7 2.44 2.48 2.44 2.48 6.32-3.55 12.1-18.38 5.46-33-1.26-2.8-.94-4.16 2-3.54 20.15 4.26 17.8 44-4.28 42.1-8.2-.7-12.64-4.77-12.64-4.77-3.85 4.7-5.34 7-10.1 6.45-3.63-.42-7.2-3.04-8.25-4.82-3.84-6.45-.6-22.28 6.52-25.75 5.23-2.53 9.73-.86 11.54.82 1.82 1.68 1.32 3.06-.93 2.22-2.88-1.1-2.74-1.47-4.9-1.92zM687.55 378.3c-1.27.88-2.57 1.32-3.93 1.32-1.75 0-3.2-.58-4.37-1.74-1.16-1.17-1.73-2.64-1.73-4.4 0-1.7.53-3.12 1.62-4.24 1.08-1.12 2.48-1.66 4.16-1.66 1.44 0 2.85.45 4.25 1.35zm0-11.08c-1.54-.78-2.97-1.16-4.32-1.16-2.1 0-3.87.7-5.27 2.15-1.4 1.44-2.1 3.22-2.1 5.38 0 2.13.7 3.92 2.13 5.38 1.42 1.46 3.17 2.18 5.23 2.18 1.54 0 2.98-.47 4.32-1.42v1.14h1.56v-22.04h-1.55zm-48.6 11.08c-1.26.88-2.58 1.32-3.94 1.32-1.74 0-3.18-.58-4.35-1.74-1.16-1.17-1.74-2.64-1.74-4.4 0-1.7.56-3.12 1.64-4.24 1.08-1.12 2.47-1.66 4.15-1.66 1.43 0 2.85.45 4.25 1.35zm0-11.08c-1.54-.78-2.97-1.16-4.32-1.16-2.1 0-3.87.7-5.27 2.15-1.4 1.44-2.1 3.22-2.1 5.38 0 2.13.72 3.92 2.13 5.38 1.42 1.46 3.17 2.18 5.23 2.18 1.54 0 3-.47 4.32-1.42v1.14h1.56v-22.04h-1.55zm58.98 11.73c-.22-.44-.33-1.35-.33-2.73v-8.64h4.1v-1.26h-4.1v-4.82s-1.55.04-1.55 2.04v2.78h-3.94v1.26h3.95v10.44c0 .97.32 1.73.97 2.28.64.54 1.44.82 2.4.82.98 0 1.98-.24 3-.74v-1.48c-1 .47-1.9.7-2.65.7-1 0-1.6-.22-1.84-.65zm-36.07-.46c-.25.8-.5 1.04-.58 1.1-.1-.06-.34-.3-.6-1.07l-3.36-10.1c-.58-1.73-1.38-2.1-1.96-2.1-.6 0-1.38.37-1.96 2.1l-3.37 10.1c-.25.76-.5 1-.6 1.08-.08-.06-.32-.3-.55-1.1h-.02l-3.78-12.17h-1.5l3.9 12.6c.57 1.76 1.36 2.13 1.94 2.14.6 0 1.4-.37 1.98-2.1l3.37-10.1c.25-.76.5-1 .6-1.08.07.06.33.3.58 1.07l3.37 10.1c.58 1.73 1.37 2.1 1.96 2.1.6 0 1.4-.38 1.95-2.14l3.93-12.6h-1.5zm-57.34-.54c-1.37 1.25-2.73 1.88-4.06 1.88-.82 0-1.5-.23-2.05-.7-.55-.46-.83-1.02-.83-1.7 0-1.2.66-2.18 1.97-2.96 1.32-.77 3-1.1 4.98-1.04zm1.92 1.6c-.24 0-.35-.25-.35-.74v-9c0-1.23-.44-2.16-1.3-2.8-.86-.66-1.94-.98-3.26-.98-1.48 0-3.06.5-4.7 1.54v1.6c1.58-1.23 3.08-1.85 4.45-1.85 2.14 0 3.22.98 3.22 2.97v1.83c-2.73.15-4.82.67-6.3 1.58-1.46.93-2.2 2.16-2.2 3.74 0 1.02.38 1.9 1.14 2.6.76.72 1.7 1.08 2.8 1.08 1.5 0 3.04-.6 4.56-1.8.07.72.16 1.2.3 1.44.13.23.37.36.72.36h.05c.95 0 1.92-.26 2.92-.74v-1.5c-.77.36-1.46.6-2.08.67zm110.3-11.95c-1-1.04-2.3-1.56-3.97-1.56-1.98 0-3.57.93-4.8 2.8h-.06V358.8h-1.55v22.03h1.56v-10.17c1.3-2.07 2.9-3.1 4.78-3.1 2.63 0 3.96 1.66 3.96 5v8.27h1.56v-8.87c0-1.84-.5-3.3-1.47-4.35zm-46.42-6.1h1.57v-2.73h-1.58zm0 19.33h1.57v-14.5h-1.58zm-51.97-14.8c-1.98 0-3.58.94-4.8 2.82h-.07v-2.53h-1.55v14.5h1.55v-10.16c1.25-2.07 2.85-3.1 4.77-3.1 2.64 0 3.97 1.66 3.97 5v8.27h1.55v-8.85c0-1.86-.5-3.3-1.48-4.37-1-1.04-2.3-1.56-3.95-1.56zM589.3 377.8c-1.23 1.2-2.78 1.8-4.67 1.8-1.17 0-2.37-.23-3.57-.68v-8.78c1.65-1.87 3.34-2.8 5.07-2.8 1.44 0 2.64.55 3.6 1.65.95 1.1 1.42 2.5 1.42 4.2 0 1.87-.6 3.4-1.84 4.6zm-3-11.76c-1.94 0-3.7.78-5.24 2.36v-9.6h-1.56v21.23c1.83.72 3.55 1.1 5.18 1.1 2.46 0 4.42-.74 5.9-2.2 1.5-1.46 2.24-3.4 2.24-5.8 0-2.1-.6-3.8-1.82-5.1-1.22-1.33-2.8-2-4.7-2z" fill="#5f6062"/><path d="M547.65 240h202.4v202.4h-202.4z" stroke="#000" stroke-width="2" fill-opacity="0"/><path d="M595.46 374.93h106.78v44.97H595.46z" stroke="#000" stroke-opacity="0" stroke-width="2" fill="#fff" fill-opacity="0"/><use xlink:href="#a" transform="matrix(1,0,0,1,600.4563577679739,379.92759376562316) translate(14.57 22.051)"/><path d="M970.7 622.3h-28.62c-5.76 0-9.3-2.97-9.3-7.65V541.7c0-5.13 4.15-9.36 9.3-9.36h28.62c5.14 0 9.3 4.23 9.3 9.36v6.92h-3.87v-6.92c.04-3.06-2.4-5.5-5.43-5.5h-28.62c-3.02 0-5.48 2.44-5.43 5.5v72.95c0 2.52 1.9 3.87 5.43 3.87h28.62c3.63 0 5.43-1.35 5.43-3.87v-4.5H980v4.5c-.1 4.77-3.64 7.64-9.3 7.64z" stroke="#fff" stroke-opacity="0" fill="#232f3e"/><path d="M954.52 539.52h10.84v3.83h-10.84v-3.83zM947.3 544.78c-1.8.02-3.3-1.42-3.3-3.2-.03-1.8 1.42-3.28 3.23-3.3 1.8-.02 3.3 1.4 3.3 3.2v.05c.02 1.78-1.43 3.24-3.22 3.25zm0-3.82c-.3.02-.5.27-.52.56 0 .32.26.58.58.58.32 0 .58-.25.58-.57v-.02c-.02-.3-.3-.57-.63-.54zM979.9 602.45h-3.84v-51.9h-41.38v-3.85h43.28c1.08 0 1.94.83 1.94 1.9z" stroke="#fff" stroke-opacity="0" fill="#232f3e"/><path d="M977.96 611.54h-43.28v-3.83h41.38v-8.85h3.84v10.77c0 1.06-.86 1.92-1.94 1.92z" stroke="#fff" stroke-opacity="0" fill="#232f3e"/><use xlink:href="#b" transform="matrix(1,0,0,1,902.7753421820319,631.294849002599) translate(28.332000000000004 17.676)"/><path d="M673.16 622.3h-48.62c-1.1 0-1.94-.9-1.94-1.9v-86.17c0-1 .84-1.9 1.94-1.9h48.62c1.1 0 1.94.9 1.94 1.9v86.18c0 1-.84 1.9-1.94 1.9zm-46.73-3.87h44.84V536.2h-44.84z" stroke="#fff" stroke-opacity="0" fill="#232f3e"/><path d="M631.73 541.32h34.23v3.83h-34.23v-3.83zM631.73 550.3h34.23v3.82h-34.23v-3.82zM631.73 559.25h34.23v3.83h-34.23v-3.83zM631.73 568.23h34.23v3.83h-34.23v-3.83z" stroke="#fff" stroke-opacity="0" fill="#232f3e"/><use xlink:href="#c" transform="matrix(1,0,0,1,592.5955199629801,631.294849002599) translate(10.051000000000002 17.676)"/><use xlink:href="#d" transform="matrix(1,0,0,1,592.5955199629801,631.294849002599) translate(56.041 17.676)"/><use xlink:href="#e" transform="matrix(1,0,0,1,592.5955199629801,631.294849002599) translate(8.107000000000006 45.251999999999995)"/><use xlink:href="#f" transform="matrix(1,0,0,1,592.5955199629801,631.294849002599) translate(72.36699999999999 45.251999999999995)"/><path d="M359.1 596.2h-78.37c-3.15 0-5.76-2.56-5.76-5.7v-51.32c0-3.14 2.6-5.7 5.76-5.7h78.37c3.14 0 5.75 2.56 5.75 5.7v51.26c0 3.2-2.52 5.77-5.66 5.77h-.1zm-78.28-58.9c-1.08 0-1.98.8-1.98 1.88v51.26c0 1.07.9 1.95 1.98 1.95h78.37c1.07 0 1.87-.9 1.87-1.96v-51.26c0-1.07-.8-1.88-1.88-1.88zM358.18 621.17h-76.5c-3.7-.02-6.67-2.98-6.67-6.66v-8.25c0-3.67 2.98-6.68 6.67-6.7h76.5c3.7 0 6.76 3 6.76 6.7v8.26c0 3.7-3.06 6.67-6.75 6.67zm-76.5-17.8c-1.54 0-2.8 1.3-2.8 2.88v8.26c0 1.6 1.26 2.84 2.8 2.87h76.5c1.62 0 2.88-1.3 2.88-2.9v-8.22c0-1.6-1.26-2.9-2.88-2.9z" stroke="#fff" stroke-opacity="0" fill="#232f3e"/><path d="M355.83 589.06h-71.76c-1.06 0-1.9-.87-1.9-1.9v-44.7c0-1.03.84-1.9 1.9-1.9h71.76c1.06 0 1.9.87 1.9 1.9v44.7c0 1.03-.84 1.9-1.9 1.9zm-69.8-3.83h67.83V544.4h-67.83zM334.28 606.7h21.54c1.26 0 1.9.64 1.9 1.9v3.6c0 1.26-.64 1.9-1.9 1.9h-21.54c-1.27 0-1.9-.64-1.9-1.9v-3.6c0-1.26.63-1.9 1.9-1.9z" stroke="#fff" stroke-opacity="0" fill="#232f3e"/><use xlink:href="#g" transform="matrix(1,0,0,1,244.97329047396784,630.1704523878855) translate(22.043999999999997 17.676)"/><use xlink:href="#h" transform="matrix(1,0,0,1,244.97329047396784,630.1704523878855) translate(61.193999999999996 17.676)"/><path d="M931.78 577.32H693.6" fill="none"/><path d="M931.78 577.32h-2.98m-3.97 0h-5.96m-3.96 0h-5.95m-3.97 0h-5.95m-3.97 0h-5.96m-3.97 0h-5.95m-3.97 0h-5.94m-3.97 0h-5.97m-3.97 0h-5.95m-3.96 0h-5.95m-3.98 0h-5.96m-3.97 0h-5.96m-3.97 0h-5.96m-3.96 0h-5.95m-3.98 0h-5.95m-3.97 0h-5.96m-3.97 0h-5.95m-3.97 0h-5.95m-3.97 0h-5.96m-3.97 0h-5.95m-3.97 0h-5.96m-3.97 0h-5.95m-3.97 0h-5.95m-3.97 0h-5.95m-3.97 0h-2.97" stroke="#000" stroke-width="2" fill="none"/><path d="M932.78 578.32h-1.03v-2h1.03z"/><path d="M678.34 577.32l14.27-4.64v9.27z" stroke="#000" stroke-width="2"/><use xlink:href="#i" transform="matrix(1,0,0,1,722.895092072506,545.7429844140579) translate(0 17.676)"/><use xlink:href="#j" transform="matrix(1,0,0,1,722.895092072506,545.7429844140579) translate(49.08599999999999 17.676)"/><path d="M365.85 577.32H604.1" fill="none"/><path d="M365.85 577.32h2.98m3.97 0h5.95m3.97 0h5.96m3.97 0h5.96m3.98 0h5.95m3.97 0h5.96m3.97 0h5.96m3.96 0h5.95m4 0h5.94m3.97 0h5.97m3.97 0h5.96m3.97 0h5.95m3.97 0h5.95m3.97 0h5.96m3.97 0h5.95m3.97 0h5.96m3.97 0h5.96m3.97 0h5.95m3.97 0h5.96m3.98 0h5.96m3.97 0h5.96m3.97 0h5.96m3.96 0h5.96m3.97 0h5.94m3.98 0h2.97" stroke="#000" stroke-width="2" fill="none"/><path d="M365.87 578.32h-1.02v-2h1.02z"/><path d="M619.36 577.32l-14.27 4.63v-9.27z" stroke="#000" stroke-width="2"/><use xlink:href="#k" transform="matrix(1,0,0,1,410.97609021847404,545.7429844140579) translate(0 17.676)"/><use xlink:href="#l" transform="matrix(1,0,0,1,410.97609021847404,545.7429844140579) translate(37.169999999999995 17.676)"/><path d="M376.98 523.78l157.08-169.03" fill="none"/><path d="M376.98 523.78l2.05-2.2m2.73-2.95l4.1-4.4m2.73-2.95l4.1-4.4m2.72-2.95l4.1-4.4m2.73-2.95l4.1-4.4m2.73-2.94l4.1-4.4m2.73-2.95l4.1-4.42m2.74-2.94l4.1-4.4m2.73-2.95l4.1-4.42m2.73-2.94l4.1-4.4m2.73-2.95l4.1-4.42m2.73-2.94l4.1-4.4m2.73-2.95l4.08-4.42m2.73-2.94l4.1-4.4m2.74-2.95l4.1-4.4m2.73-2.95l4.1-4.4m2.73-2.95l4.1-4.4m2.73-2.95l4.1-4.4m2.73-2.95l4.1-4.4m2.73-2.95l4.1-4.4m2.72-2.95l4.1-4.4m2.73-2.95l4.1-4.4m2.73-2.95l4.1-4.4m2.73-2.95l2.06-2.2" stroke="#000" stroke-width="2" fill="none"/><path d="M366.6 534.96l6.3-13.6 6.8 6.3zM544.45 343.57l-6.3 13.6-6.8-6.3z" stroke="#000" stroke-width="2"/><path d="M934.24 534.37L766.22 379.8" stroke="#00bef0" stroke-width="3" fill="none"/><path d="M936.46 534.37l-1.65 1.5-.38.7-1.22-1.12 2.03-2.2z" fill="#00bef0"/><path d="M754.62 369.13l13.64 6.25-6.28 6.82z" stroke="#00bef0" stroke-width="3" fill="#00bef0"/><use xlink:href="#m" transform="matrix(1,0,0,1,823.7397617061906,408.6781107692268) translate(0 17.676)"/><use xlink:href="#n" transform="matrix(1,0,0,1,823.7397617061906,408.6781107692268) translate(55.56599999999999 17.676)"/><path d="M365.86 556.9L532.7 375.3" stroke="#ff673c" stroke-width="3" fill="none"/><path d="M367 557.87l-2.15 2.34v-4.3z" fill="#ff673c"/><path d="M543.37 363.68l-6.24 13.64-6.82-6.27z" stroke="#ff673c" stroke-width="3" fill="#ff673c"/><use xlink:href="#o" transform="matrix(1,0,0,1,443.9662825701977,468.97563445892604) translate(0 17.676)"/><use xlink:href="#n" transform="matrix(1,0,0,1,443.9662825701977,468.97563445892604) translate(70.992 17.676)"/><path d="M545.64 317.75L361.9 518.25" stroke="#00bef0" stroke-width="3" fill="none"/><path d="M546.65 318.73l-2.14-1.97 2.15-2.34z" fill="#00bef0"/><path d="M351.26 529.9l6.22-13.66 6.83 6.26z" stroke="#00bef0" stroke-width="3" fill="#00bef0"/><use xlink:href="#m" transform="matrix(1,0,0,1,363.5860749090747,382.43530723570944) translate(0 17.676)"/><use xlink:href="#n" transform="matrix(1,0,0,1,363.5860749090747,382.43530723570944) translate(55.56599999999999 17.676)"/><path d="M754 398.4l163.4 145.86M754.02 398.44l-1.15-1.02" stroke="#ff673c" stroke-width="3" fill="none"/><path d="M929.15 554.76l-13.73-6.04 6.18-6.92z" stroke="#ff673c" stroke-width="3" fill="#ff673c"/><use xlink:href="#o" transform="matrix(1,0,0,1,736.0960322727507,481.3707808849292) translate(0 17.676)"/><use xlink:href="#n" transform="matrix(1,0,0,1,736.0960322727507,481.3707808849292) translate(70.992 17.676)"/><path d="M676.1 599.32H914.27" fill="none"/><path d="M676.1 599.32h2.98m3.97 0H689m3.98 0h5.95m3.97 0h5.95m3.97 0h5.96m3.97 0h5.95m3.97 0h5.95m3.97 0h5.95m3.97 0h5.95m3.97 0h5.95m3.96 0h5.96m3.97 0h5.94m3.97 0h5.97m3.97 0h5.95m3.96 0H818m3.98 0h5.96m3.97 0h5.96m3.97 0h5.95m3.97 0h5.96m3.98 0h5.95m3.97 0h5.95m3.97 0h5.96m3.97 0h5.95m3.97 0h5.96m3.97 0h2.97" stroke="#000" stroke-width="2" fill="none"/><path d="M676.13 600.32h-1.03v-2h1.03z"/><path d="M929.54 599.32l-14.27 4.63v-9.27z" stroke="#000" stroke-width="2"/><g><use xlink:href="#p" transform="matrix(1,0,0,1,744.7110920725074,603.3159274509942) translate(0 17.676)"/><use xlink:href="#q" transform="matrix(1,0,0,1,744.7110920725074,603.3159274509942) translate(50.831999999999994 17.676)"/></g><path d="M649.85 531.34h-2v-2.97h2zm0-6.94h-2v-5.95h2zm0-9.92h-2v-5.96h2zm0-33.83h-2v-1.9h2zm0-5.86h-2v-5.96h2zm0-9.93h-2v-2.98h2z"/><path d="M649.85 532.34h-2v-1.02h2zM653.5 460.9h-9.3l4.65-14.27z"/><path d="M654.86 461.9h-12.02l6-18.5zm-9.27-2h6.5l-3.25-10.04z"/><g><use xlink:href="#r" transform="matrix(1,0,0,1,606.100180916541,480.6473424906308) translate(0 17.676)"/></g><defs><path fill="#5f6062" d="M193 0L50-700h91c33 177 68 353 99 531 44-171 97-359 143-531h69c46 174 98 347 141 524 33-175 73-350 108-524h89L638 0h-69c-51-183-104-363-153-547C369-362 314-182 264 0h-71" id="s"/><path fill="#5f6062" d="M142-222c4 84 56 155 140 155 43 0 79-15 110-46l53 59c-44 44-99 66-165 66C137 14 53-108 53-256c0-154 82-267 227-267 152 1 232 127 208 301H142zm261-74c2-92-46-150-123-150-87 0-136 59-139 150h262" id="t"/><path fill="#5f6062" d="M510-256c0 156-66 266-209 268-49 0-92-19-131-56V0H83v-681l87-41v255c34-37 77-56 128-56 139 1 212 116 212 267zM170-138c21 37 65 68 119 69 96-2 132-83 132-187 0-108-34-184-132-187-53-2-100 35-119 68v237" id="u"/><path fill="#5f6062" d="M595-501c0 104-66 178-163 195L582 0h-98L340-300H185V0H98v-700h276c141-4 221 74 221 199zm-88 2c0-72-47-120-131-120H185v238h191c83 3 131-45 131-118" id="v"/><path fill="#5f6062" d="M335-617V0h-87v-617H53v-83h477v83H335" id="w"/><path fill="#5f6062" d="M590-129C552-47 477 13 358 12 151 6 68-145 68-350c0-204 85-362 290-362 109 0 185 42 226 126l-78 40c-36-50-68-85-148-85-145 0-200 131-200 281-1 139 63 283 200 280 65 0 116-30 152-89" id="x"/><g id="a"><use transform="matrix(0.018,0,0,0.018,0,0)" xlink:href="#s"/><use transform="matrix(0.018,0,0,0.018,15.12,0)" xlink:href="#t"/><use transform="matrix(0.018,0,0,0.018,24.804,0)" xlink:href="#u"/><use transform="matrix(0.018,0,0,0.018,34.92,0)" xlink:href="#v"/><use transform="matrix(0.018,0,0,0.018,46.53,0)" xlink:href="#w"/><use transform="matrix(0.018,0,0,0.018,56.214,0)" xlink:href="#x"/></g><path d="M592-490c0 121-89 209-226 209H185V0H98v-700h268c143 1 226 73 226 210zm-87 0c-2-75-46-129-133-129H185v257h187c84 4 132-53 133-128" id="y"/><path d="M398-309c1-84-34-132-110-134-79 0-118 44-118 132V0H83v-682l87-40v264c31-43 75-65 132-65 133 3 184 83 183 229V0h-87v-309" id="z"/><path d="M505-256c0 154-80 268-226 268S53-101 53-255s80-268 226-268 226 113 226 267zm-364 1c-1 104 43 185 138 186 96-2 139-82 138-187 1-104-43-186-138-187-96 2-139 82-138 188" id="A"/><path d="M302-523c133 3 184 83 183 229V0h-87v-309c1-84-34-132-110-134-79 0-118 44-118 132V0H83v-511h87v52c31-43 75-64 132-64" id="B"/><path d="M142-222c4 84 56 155 140 155 43 0 79-15 110-46l53 59c-44 44-99 66-165 66C137 14 53-108 53-256c0-154 82-267 227-267 152 1 232 127 208 301H142zm261-74c2-92-46-150-123-150-87 0-136 59-139 150h262" id="C"/><g id="b"><use transform="matrix(0.018,0,0,0.018,0,0)" xlink:href="#y"/><use transform="matrix(0.018,0,0,0.018,11.34,0)" xlink:href="#z"/><use transform="matrix(0.018,0,0,0.018,21.473999999999997,0)" xlink:href="#A"/><use transform="matrix(0.018,0,0,0.018,31.517999999999994,0)" xlink:href="#B"/><use transform="matrix(0.018,0,0,0.018,41.651999999999994,0)" xlink:href="#C"/></g><path d="M515 0v-322H185V0H98v-700h87v296h330v-296h87V0h-87" id="D"/><path d="M88 0v-681l87-41V0H88" id="E"/><g id="c"><use transform="matrix(0.018,0,0,0.018,0,0)" xlink:href="#D"/><use transform="matrix(0.018,0,0,0.018,12.6,0)" xlink:href="#C"/><use transform="matrix(0.018,0,0,0.018,22.284,0)" xlink:href="#E"/><use transform="matrix(0.018,0,0,0.018,26.999999999999996,0)" xlink:href="#E"/><use transform="matrix(0.018,0,0,0.018,31.716,0)" xlink:href="#A"/></g><path d="M193 0L50-700h91c33 177 68 353 99 531 44-171 97-359 143-531h69c46 174 98 347 141 524 33-175 73-350 108-524h89L638 0h-69c-51-183-104-363-153-547C369-362 314-182 264 0h-71" id="F"/><path d="M357-415c-92-58-187 7-187 127V0H83v-511h87v67c28-79 133-103 200-53" id="G"/><path d="M53-256c0-151 72-265 211-267 50 0 93 16 129 48v-206l87-41V0h-87v-40c-33 35-76 52-129 52C124 11 53-106 53-256zm88 0c-2 96 45 187 135 187 51 0 90-23 117-69v-240c-27-43-66-65-117-65-97 2-136 80-135 187" id="H"/><g id="d"><use transform="matrix(0.018,0,0,0.018,0,0)" xlink:href="#F"/><use transform="matrix(0.018,0,0,0.018,15.12,0)" xlink:href="#A"/><use transform="matrix(0.018,0,0,0.018,25.163999999999998,0)" xlink:href="#G"/><use transform="matrix(0.018,0,0,0.018,32.076,0)" xlink:href="#E"/><use transform="matrix(0.018,0,0,0.018,36.792,0)" xlink:href="#H"/></g><path d="M514-278c65 157-50 290-212 290C183 12 87-55 58-144l82-30c26 58 83 104 164 104 81 1 141-39 138-118-6-138-180-137-272-200-51-34-91-72-91-151 0-106 97-173 215-173 102 0 183 48 205 125l-80 27c-19-42-68-71-131-71-83 0-151 62-108 134 39 64 149 76 216 113 42 23 99 58 118 106" id="I"/><path d="M376-296c7-99-20-153-111-151-51 0-101 17-149 51l-25-73c55-36 116-54 185-54 121 0 182 61 182 184V0h-82v-47c-42 39-90 59-145 59C124 13 53-51 53-160c0-161 199-209 323-136zM135-160c0 60 45 96 109 95 50 0 94-22 132-67v-88c-75-53-241-52-241 60" id="J"/><path d="M589-523c109 0 180 74 180 188V0h-87v-310c0-89-34-133-103-133s-110 62-110 136V0h-87v-310c0-89-34-133-102-133-72 0-110 57-110 132V0H83v-511h87v48c30-40 75-60 134-60 63 1 113 32 137 75 33-50 82-75 148-75" id="K"/><path d="M512-256c0 150-73 266-211 268-53 0-97-20-131-60v209l-87 41v-713h87v43c37-37 80-55 131-55 139 1 211 118 211 267zm-89 0c1-100-41-186-133-187-54 0-94 23-120 69v236c35 46 75 69 120 69 96-2 134-81 133-187" id="L"/><g id="e"><use transform="matrix(0.018,0,0,0.018,0,0)" xlink:href="#I"/><use transform="matrix(0.018,0,0,0.018,10.782,0)" xlink:href="#J"/><use transform="matrix(0.018,0,0,0.018,20.25,0)" xlink:href="#K"/><use transform="matrix(0.018,0,0,0.018,35.477999999999994,0)" xlink:href="#L"/><use transform="matrix(0.018,0,0,0.018,45.629999999999995,0)" xlink:href="#E"/><use transform="matrix(0.018,0,0,0.018,50.346,0)" xlink:href="#C"/></g><path d="M539 0l-60-171H201L142 0H51l248-700h81L628 0h-89zm-87-248c-36-107-80-221-112-330-34 115-75 219-113 330h225" id="M"/><g id="f"><use transform="matrix(0.018,0,0,0.018,0,0)" xlink:href="#M"/><use transform="matrix(0.018,0,0,0.018,12.222,0)" xlink:href="#L"/><use transform="matrix(0.018,0,0,0.018,22.374,0)" xlink:href="#L"/></g><path d="M510-256c0 156-66 266-209 268-49 0-92-19-131-56V0H83v-681l87-41v255c34-37 77-56 128-56 139 1 212 116 212 267zM170-138c21 37 65 68 119 69 96-2 132-83 132-187 0-108-34-184-132-187-53-2-100 35-119 68v237" id="N"/><g id="g"><use transform="matrix(0.018,0,0,0.018,0,0)" xlink:href="#F"/><use transform="matrix(0.018,0,0,0.018,15.12,0)" xlink:href="#C"/><use transform="matrix(0.018,0,0,0.018,24.804,0)" xlink:href="#N"/></g><path d="M589-201C589-68 503-1 362 0H98v-700h248c137-4 214 65 218 185-1 73-46 122-103 146 73 22 128 80 128 168zM185-403c133 1 295 19 293-111 0-71-42-107-127-107H185v218zM372-80c85 3 128-41 131-115 0-86-54-129-163-129H185v244h187" id="O"/><path d="M169 0L38-511h86c30 132 61 263 89 397 32-133 74-266 109-397h72c36 133 76 264 110 399 27-136 59-266 88-399h86L547 0h-78c-36-121-78-248-112-370-34 129-73 244-110 370h-78" id="P"/><path d="M416-133C416 2 245 43 130-12 97-28 70-48 49-74l62-53c38 41 80 61 125 61 72 0 125-57 76-108-78-74-258-69-256-214-1-87 81-137 172-135 71 0 129 26 172 77l-60 50c-31-33-69-49-113-49-76 0-117 71-51 108 95 53 240 63 240 204" id="Q"/><g id="h"><use transform="matrix(0.018,0,0,0.018,0,0)" xlink:href="#O"/><use transform="matrix(0.018,0,0,0.018,11.808,0)" xlink:href="#G"/><use transform="matrix(0.018,0,0,0.018,18.81,0)" xlink:href="#A"/><use transform="matrix(0.018,0,0,0.018,28.854,0)" xlink:href="#P"/><use transform="matrix(0.018,0,0,0.018,41.634,0)" xlink:href="#Q"/><use transform="matrix(0.018,0,0,0.018,50.07600000000001,0)" xlink:href="#C"/><use transform="matrix(0.018,0,0,0.018,59.76,0)" xlink:href="#G"/></g><path d="M663-350c0 209-87 362-298 362C155 12 68-143 68-350s87-362 297-362c211 0 298 153 298 362zm-505 0c0 154 54 280 207 280 152 0 204-129 207-280 3-155-58-281-207-281-152 0-207 131-207 281" id="R"/><path d="M335-617V0h-87v-617H53v-83h477v83H335" id="S"/><g id="i"><use transform="matrix(0.018,0,0,0.018,0,0)" xlink:href="#y"/><use transform="matrix(0.018,0,0,0.018,11.159999999999998,0)" xlink:href="#R"/><use transform="matrix(0.018,0,0,0.018,24.299999999999997,0)" xlink:href="#I"/><use transform="matrix(0.018,0,0,0.018,35.081999999999994,0)" xlink:href="#S"/></g><path d="M-8 130l394-842h86L79 130H-8" id="T"/><path d="M182-658c1 30-25 55-55 54-29 1-55-25-54-54-1-29 25-57 54-56 30-1 56 26 55 56zM84 0v-511h87V0H84" id="U"/><path d="M452-119C429-40 364 12 265 12 124 11 53-102 53-255c0-154 72-267 216-268 91 0 150 40 179 119l-82 30c-17-45-49-68-96-68-96 2-128 82-128 187 0 103 33 182 125 185 53 0 88-25 104-76" id="V"/><path d="M53-256c0-149 75-266 212-267 53 0 96 18 129 54v-42h87v490c1 161-90 217-241 228l-42-68c145-7 208-41 196-189-30 41-74 62-132 62C128 9 53-105 53-256zm88 0c-2 102 47 185 139 187 51-1 94-35 114-72v-234c-18-34-67-67-114-68-100 2-140 79-139 187" id="W"/><path d="M590-129C552-47 477 13 358 12 151 6 68-145 68-350c0-204 85-362 290-362 109 0 185 42 226 126l-78 40c-36-50-68-85-148-85-145 0-200 131-200 281-1 139 63 283 200 280 65 0 116-30 152-89" id="X"/><g id="j"><use transform="matrix(0.018,0,0,0.018,0,0)" xlink:href="#T"/><use transform="matrix(0.018,0,0,0.018,8.639999999999999,0)" xlink:href="#U"/><use transform="matrix(0.018,0,0,0.018,13.212,0)" xlink:href="#B"/><use transform="matrix(0.018,0,0,0.018,23.345999999999997,0)" xlink:href="#V"/><use transform="matrix(0.018,0,0,0.018,32.346,0)" xlink:href="#A"/><use transform="matrix(0.018,0,0,0.018,42.38999999999999,0)" xlink:href="#K"/><use transform="matrix(0.018,0,0,0.018,57.617999999999995,0)" xlink:href="#U"/><use transform="matrix(0.018,0,0,0.018,62.19,0)" xlink:href="#B"/><use transform="matrix(0.018,0,0,0.018,72.324,0)" xlink:href="#W"/><use transform="matrix(0.018,0,0,0.018,82.458,0)" xlink:href="#X"/><use transform="matrix(0.018,0,0,0.018,94.104,0)" xlink:href="#J"/><use transform="matrix(0.018,0,0,0.018,103.572,0)" xlink:href="#E"/><use transform="matrix(0.018,0,0,0.018,108.288,0)" xlink:href="#E"/></g><path d="M613-256c4 159-97 271-248 268C156 8 68-143 68-350c0-205 91-356 297-362 122-4 179 49 227 123l-78 45c-36-49-70-86-149-86-153 0-204 127-207 280-3 145 63 282 207 279 103 0 167-76 157-189H395v-80h218v84" id="Y"/><path d="M98 0v-700h416v82H185v215h217v82H185v238h351V0H98" id="Z"/><g id="k"><use transform="matrix(0.018,0,0,0.018,0,0)" xlink:href="#Y"/><use transform="matrix(0.018,0,0,0.018,12.383999999999999,0)" xlink:href="#Z"/><use transform="matrix(0.018,0,0,0.018,23.165999999999997,0)" xlink:href="#S"/></g><path d="M200-139c-8 86 78 82 129 43l-10 85c-29 15-62 23-98 23-72 0-108-41-108-122v-325H30v-76h83v-169l87-42v211h126v76H200v296" id="aa"/><path d="M100 0v-700h87V0h-87" id="ab"/><path d="M318-615c-47-24-124-37-119 34v70h119v76H199V0h-87v-435H33v-76h79v-85c-10-117 121-140 206-92v73" id="ac"/><g id="l"><use transform="matrix(0.018,0,0,0.018,0,0)" xlink:href="#T"/><use transform="matrix(0.018,0,0,0.018,7.919999999999998,0)" xlink:href="#V"/><use transform="matrix(0.018,0,0,0.018,16.919999999999998,0)" xlink:href="#A"/><use transform="matrix(0.018,0,0,0.018,26.964,0)" xlink:href="#B"/><use transform="matrix(0.018,0,0,0.018,37.098,0)" xlink:href="#B"/><use transform="matrix(0.018,0,0,0.018,47.232,0)" xlink:href="#C"/><use transform="matrix(0.018,0,0,0.018,56.916,0)" xlink:href="#V"/><use transform="matrix(0.018,0,0,0.018,65.73599999999999,0)" xlink:href="#aa"/><use transform="matrix(0.018,0,0,0.018,72.46799999999999,0)" xlink:href="#U"/><use transform="matrix(0.018,0,0,0.018,77.03999999999999,0)" xlink:href="#A"/><use transform="matrix(0.018,0,0,0.018,87.08399999999999,0)" xlink:href="#B"/><use transform="matrix(0.018,0,0,0.018,97.21799999999999,0)" xlink:href="#ab"/><use transform="matrix(0.018,0,0,0.018,102.38399999999999,0)" xlink:href="#B"/><use transform="matrix(0.018,0,0,0.018,112.51799999999999,0)" xlink:href="#ac"/><use transform="matrix(0.018,0,0,0.018,118.27799999999999,0)" xlink:href="#A"/></g><g id="m"><use transform="matrix(0.018,0,0,0.018,0,0)" xlink:href="#y"/><use transform="matrix(0.018,0,0,0.018,11.34,0)" xlink:href="#z"/><use transform="matrix(0.018,0,0,0.018,21.473999999999997,0)" xlink:href="#A"/><use transform="matrix(0.018,0,0,0.018,31.517999999999994,0)" xlink:href="#B"/><use transform="matrix(0.018,0,0,0.018,41.651999999999994,0)" xlink:href="#C"/></g><path d="M165-203c-1 84 34 132 110 134 79 0 118-44 118-132v-310h87V0h-87v-49c-31 41-74 61-129 61C128 9 78-68 78-216v-295h87v308" id="ad"/><g id="n"><use transform="matrix(0.018,0,0,0.018,0,0)" xlink:href="#J"/><use transform="matrix(0.018,0,0,0.018,9.468,0)" xlink:href="#ad"/><use transform="matrix(0.018,0,0,0.018,19.601999999999997,0)" xlink:href="#H"/><use transform="matrix(0.018,0,0,0.018,29.717999999999996,0)" xlink:href="#U"/><use transform="matrix(0.018,0,0,0.018,34.29,0)" xlink:href="#A"/></g><g id="o"><use transform="matrix(0.018,0,0,0.018,0,0)" xlink:href="#O"/><use transform="matrix(0.018,0,0,0.018,11.808,0)" xlink:href="#G"/><use transform="matrix(0.018,0,0,0.018,18.81,0)" xlink:href="#A"/><use transform="matrix(0.018,0,0,0.018,28.854,0)" xlink:href="#P"/><use transform="matrix(0.018,0,0,0.018,41.634,0)" xlink:href="#Q"/><use transform="matrix(0.018,0,0,0.018,50.07600000000001,0)" xlink:href="#C"/><use transform="matrix(0.018,0,0,0.018,59.76,0)" xlink:href="#G"/></g><path d="M462 0L301-283 144 0H47l208-362L62-700h98l144 253 142-253h96L350-367 560 0h-98" id="ae"/><path d="M706 0h-87c1-168-2-342 2-507-69 175-150 347-223 519-71-171-148-345-216-518 7 161 1 340 3 506H98v-700h82c73 173 150 342 221 518 70-175 149-346 222-518h83V0" id="af"/><path d="M98 0v-700h87v616h344V0H98" id="ag"/><g id="p"><use transform="matrix(0.018,0,0,0.018,0,0)" xlink:href="#O"/><use transform="matrix(0.018,0,0,0.018,11.358,0)" xlink:href="#ae"/><use transform="matrix(0.018,0,0,0.018,22.266,0)" xlink:href="#af"/><use transform="matrix(0.018,0,0,0.018,36.72,0)" xlink:href="#ag"/></g><g id="q"><use transform="matrix(0.018,0,0,0.018,0,0)" xlink:href="#S"/><use transform="matrix(0.018,0,0,0.018,10.494,0)" xlink:href="#G"/><use transform="matrix(0.018,0,0,0.018,17.136,0)" xlink:href="#J"/><use transform="matrix(0.018,0,0,0.018,26.604,0)" xlink:href="#B"/><use transform="matrix(0.018,0,0,0.018,36.738,0)" xlink:href="#Q"/><use transform="matrix(0.018,0,0,0.018,45.18,0)" xlink:href="#ac"/><use transform="matrix(0.018,0,0,0.018,50.94,0)" xlink:href="#C"/><use transform="matrix(0.018,0,0,0.018,60.623999999999995,0)" xlink:href="#G"/></g><path d="M498 0h-95L245-309l-75 78V0H83v-681l87-41v387l166-176h104L306-372" id="ah"/><g id="r"><use transform="matrix(0.018,0,0,0.018,0,0)" xlink:href="#P"/><use transform="matrix(0.018,0,0,0.018,12.69,0)" xlink:href="#C"/><use transform="matrix(0.018,0,0,0.018,22.374,0)" xlink:href="#N"/><use transform="matrix(0.018,0,0,0.018,32.489999999999995,0)" xlink:href="#Q"/><use transform="matrix(0.018,0,0,0.018,40.931999999999995,0)" xlink:href="#A"/><use transform="matrix(0.018,0,0,0.018,50.975999999999985,0)" xlink:href="#V"/><use transform="matrix(0.018,0,0,0.018,59.97599999999999,0)" xlink:href="#ah"/><use transform="matrix(0.018,0,0,0.018,69.26399999999998,0)" xlink:href="#C"/><use transform="matrix(0.018,0,0,0.018,78.76799999999997,0)" xlink:href="#aa"/></g></defs></g></svg>